<mxfile host="65bd71144e">
    <diagram id="E1flaX94Ex0s4DE8mbio" name="Page-1">
        <mxGraphModel dx="417" dy="527" grid="1" gridSize="10" guides="1" tooltips="1" connect="1" arrows="1" fold="1" page="1" pageScale="1" pageWidth="827" pageHeight="1169" math="0" shadow="0">
            <root>
                <mxCell id="0"/>
                <mxCell id="1" parent="0"/>
                <mxCell id="2" value="" style="rounded=0;whiteSpace=wrap;html=1;" vertex="1" parent="1">
                    <mxGeometry x="160" y="259" width="410" height="80" as="geometry"/>
                </mxCell>
                <mxCell id="4" value="Blockchain&lt;br&gt;&lt;br&gt;&lt;br&gt;" style="rounded=1;whiteSpace=wrap;html=1;" vertex="1" parent="1">
                    <mxGeometry x="170" y="269" width="390" height="60" as="geometry"/>
                </mxCell>
                <mxCell id="5" value="Merkle tree" style="rounded=1;whiteSpace=wrap;html=1;" vertex="1" parent="1">
                    <mxGeometry x="180" y="279" width="120" height="20" as="geometry"/>
                </mxCell>
                <mxCell id="6" value="Transaction" style="rounded=1;whiteSpace=wrap;html=1;" vertex="1" parent="1">
                    <mxGeometry x="180" y="303" width="120" height="20" as="geometry"/>
                </mxCell>
                <mxCell id="7" value="Hash function" style="rounded=1;whiteSpace=wrap;html=1;" vertex="1" parent="1">
                    <mxGeometry x="305" y="303" width="120" height="20" as="geometry"/>
                </mxCell>
                <mxCell id="8" value="Cryptography" style="rounded=1;whiteSpace=wrap;html=1;" vertex="1" parent="1">
                    <mxGeometry x="433" y="279" width="120" height="20" as="geometry"/>
                </mxCell>
                <mxCell id="9" value="Timestamp" style="rounded=1;whiteSpace=wrap;html=1;" vertex="1" parent="1">
                    <mxGeometry x="433" y="303" width="120" height="20" as="geometry"/>
                </mxCell>
                <mxCell id="10" value="P2P network" style="rounded=0;whiteSpace=wrap;html=1;" vertex="1" parent="1">
                    <mxGeometry x="160" y="220" width="410" height="30" as="geometry"/>
                </mxCell>
                <mxCell id="11" value="Consensus" style="rounded=0;whiteSpace=wrap;html=1;" vertex="1" parent="1">
                    <mxGeometry x="160" y="170" width="410" height="40" as="geometry"/>
                </mxCell>
                <mxCell id="12" value="CFT&amp;nbsp;" style="rounded=1;whiteSpace=wrap;html=1;" vertex="1" parent="1">
                    <mxGeometry x="180" y="180" width="140" height="20" as="geometry"/>
                </mxCell>
                <mxCell id="13" value="BFT" style="rounded=1;whiteSpace=wrap;html=1;" vertex="1" parent="1">
                    <mxGeometry x="410" y="180" width="143" height="20" as="geometry"/>
                </mxCell>
                <mxCell id="14" value="Smart contracts" style="rounded=0;whiteSpace=wrap;html=1;" vertex="1" parent="1">
                    <mxGeometry x="160" y="130" width="410" height="30" as="geometry"/>
                </mxCell>
                <mxCell id="16" value="Applications" style="rounded=0;whiteSpace=wrap;html=1;" vertex="1" parent="1">
                    <mxGeometry x="160" y="90" width="410" height="30" as="geometry"/>
                </mxCell>
                <mxCell id="17" value="Wallets" style="rounded=1;whiteSpace=wrap;html=1;" vertex="1" parent="1">
                    <mxGeometry x="180" y="225" width="140" height="20" as="geometry"/>
                </mxCell>
                <mxCell id="18" value="Nodes" style="rounded=1;whiteSpace=wrap;html=1;" vertex="1" parent="1">
                    <mxGeometry x="413" y="225" width="140" height="20" as="geometry"/>
                </mxCell>
                <mxCell id="19" value="Scripting languages" style="rounded=1;whiteSpace=wrap;html=1;" vertex="1" parent="1">
                    <mxGeometry x="180" y="135" width="120" height="20" as="geometry"/>
                </mxCell>
                <mxCell id="20" value="Scripts" style="rounded=1;whiteSpace=wrap;html=1;" vertex="1" parent="1">
                    <mxGeometry x="433" y="135" width="120" height="20" as="geometry"/>
                </mxCell>
                <mxCell id="21" value="Crosschain solutions" style="rounded=0;whiteSpace=wrap;html=1;" vertex="1" parent="1">
                    <mxGeometry x="160" y="350" width="410" height="30" as="geometry"/>
                </mxCell>
                <mxCell id="23" value="Application layer" style="text;html=1;align=center;verticalAlign=middle;resizable=0;points=[];autosize=1;strokeColor=none;fillColor=none;" vertex="1" parent="1">
                    <mxGeometry x="600" y="95" width="100" height="20" as="geometry"/>
                </mxCell>
                <mxCell id="24" value="Smart contract's layer" style="text;html=1;align=center;verticalAlign=middle;resizable=0;points=[];autosize=1;strokeColor=none;fillColor=none;" vertex="1" parent="1">
                    <mxGeometry x="585" y="135" width="130" height="20" as="geometry"/>
                </mxCell>
                <mxCell id="25" value="Consensus layer" style="text;html=1;align=center;verticalAlign=middle;resizable=0;points=[];autosize=1;strokeColor=none;fillColor=none;" vertex="1" parent="1">
                    <mxGeometry x="595" y="180" width="110" height="20" as="geometry"/>
                </mxCell>
                <mxCell id="26" value="Network layer" style="text;html=1;align=center;verticalAlign=middle;resizable=0;points=[];autosize=1;strokeColor=none;fillColor=none;" vertex="1" parent="1">
                    <mxGeometry x="605" y="225" width="90" height="20" as="geometry"/>
                </mxCell>
                <mxCell id="27" value="Data layer" style="text;html=1;align=center;verticalAlign=middle;resizable=0;points=[];autosize=1;strokeColor=none;fillColor=none;" vertex="1" parent="1">
                    <mxGeometry x="615" y="283" width="70" height="20" as="geometry"/>
                </mxCell>
                <mxCell id="28" value="Crossnetwork layer" style="text;html=1;align=center;verticalAlign=middle;resizable=0;points=[];autosize=1;strokeColor=none;fillColor=none;" vertex="1" parent="1">
                    <mxGeometry x="590" y="355" width="120" height="20" as="geometry"/>
                </mxCell>
            </root>
        </mxGraphModel>
    </diagram>
</mxfile>